<svg id="Layer_1" data-name="Layer 1" xmlns="http://www.w3.org/2000/svg" viewBox="0 0 31.71 32.36"><defs></defs><path fill="#bdbdbd" id="prefix_Path_5" data-name="prefix  Path 5" class="cls-1" d="M31.71,16.25A16,16,0,0,1,22.06,31a15.52,15.52,0,0,1-6.23,1.25A15.15,15.15,0,0,1,9.67,31a16,16,0,0,1-5-3.42,16.25,16.25,0,0,1-3.4-5.07A15.52,15.52,0,0,1,0,16.25a15.87,15.87,0,0,1,1.22-6.2A16.47,16.47,0,0,1,4.58,4.93a16.27,16.27,0,0,1,5-3.5A15.2,15.2,0,0,1,15.83.13H31.71V16.25Zm-7.41,0V7.55H15.83a8.29,8.29,0,0,0-5.95,2.52,9,9,0,0,0-1.83,9.56,8.15,8.15,0,0,0,4.47,4.51,8.16,8.16,0,0,0,3.31.67,8.13,8.13,0,0,0,3.33-.67,8.88,8.88,0,0,0,2.69-1.8,8,8,0,0,0,1.8-2.71,8.88,8.88,0,0,0,.65-3.38"/></svg>